<?xml version="1.0" ?><!DOCTYPE svg  PUBLIC '-//W3C//DTD SVG 1.1//EN'  'http://www.w3.org/Graphics/SVG/1.1/DTD/svg11.dtd'><svg enable-background="new 0 0 96 96" height="96px" id="navigation" version="1.1" viewBox="0 0 96 96" width="96px" xml:space="preserve" xmlns="http://www.w3.org/2000/svg" xmlns:xlink="http://www.w3.org/1999/xlink"><path d="M84,4H12C5.373,4,0,9.373,0,16s5.373,12,12,12h72c6.627,0,12-5.373,12-12S90.627,4,84,4z M84,20H12c-2.209,0-4-1.791-4-4  s1.791-4,4-4h72c2.209,0,4,1.791,4,4S86.209,20,84,20z"/><path d="M84,36H12C5.373,36,0,41.373,0,48c0,6.627,5.373,12,12,12h72c6.627,0,12-5.373,12-12C96,41.373,90.627,36,84,36z M84,52H12  c-2.209,0-4-1.791-4-4s1.791-4,4-4h72c2.209,0,4,1.791,4,4S86.209,52,84,52z"/><path d="M84,68H12C5.373,68,0,73.373,0,80s5.373,12,12,12h72c6.627,0,12-5.373,12-12S90.627,68,84,68z M84,84H12  c-2.209,0-4-1.791-4-4s1.791-4,4-4h72c2.209,0,4,1.791,4,4S86.209,84,84,84z"/></svg>